<svg viewBox="0 0 120 120" xmlns="http://www.w3.org/2000/svg">
    <!-- Silla -->
    <rect x="30" y="68" width="44" height="6" rx="3" fill="#2A2A2A" stroke="#888" stroke-width="1.5"/>
    <rect x="68" y="52" width="6" height="22" rx="3" fill="#2A2A2A" stroke="#888" stroke-width="1.5"/>
    <line x1="32" y1="74" x2="28" y2="96" stroke="#888" stroke-width="3" stroke-linecap="round"/>
    <line x1="72" y1="74" x2="76" y2="96" stroke="#888" stroke-width="3" stroke-linecap="round"/>
    <!-- Figura levantándose -->
    <circle cx="80" cy="34" r="10" fill="#FF6B2B"/>
    <path d="M80 44 Q78 58 76 70" stroke="#FF6B2B" stroke-width="8" stroke-linecap="round" fill="none"/>
    <!-- Brazos levantados con movimiento -->
    <line x1="76" y1="52" x2="58" y2="44" stroke="#FF6B2B" stroke-width="6" stroke-linecap="round"/>
    <line x1="78" y1="52" x2="96" y2="36" stroke="#FF6B2B" stroke-width="6" stroke-linecap="round"/>
    <!-- Flecha de levantarse -->
    <path d="M60 66 L60 42" stroke="#1DB954" stroke-width="3"/>
    <polygon points="56,46 60,36 64,46" fill="#1DB954"/>
    <!-- Pasos de caminar -->
    <ellipse cx="26" cy="94" rx="8" ry="4" fill="#FFD166" opacity="0.6"/>
    <ellipse cx="44" cy="98" rx="8" ry="4" fill="#FFD166" opacity="0.4"/>
    <!-- Reloj 2h -->
    <circle cx="104" cy="16" r="12" fill="none" stroke="#4ECDC4" stroke-width="2"/>
    <line x1="104" y1="10" x2="104" y2="16" stroke="#4ECDC4" stroke-width="2" stroke-linecap="round"/>
    <line x1="104" y1="16" x2="110" y2="16" stroke="#4ECDC4" stroke-width="2" stroke-linecap="round"/>
    <text x="60" y="115" text-anchor="middle" fill="#888" font-size="7.5" font-family="monospace">ANTIESTÁTICA</text>
  </svg>
